<?xml version="1.0" encoding="UTF-8" standalone="no"?>
<!-- Created with Inkscape (http://www.inkscape.org/) -->

<svg
   xmlns:dc="http://purl.org/dc/elements/1.1/"
   xmlns:cc="http://creativecommons.org/ns#"
   xmlns:rdf="http://www.w3.org/1999/02/22-rdf-syntax-ns#"
   xmlns:svg="http://www.w3.org/2000/svg"
   xmlns="http://www.w3.org/2000/svg"
   xmlns:sodipodi="http://sodipodi.sourceforge.net/DTD/sodipodi-0.dtd"
   xmlns:inkscape="http://www.inkscape.org/namespaces/inkscape"
   width="744.09448819"
   height="1052.3622047"
   id="svg2"
   version="1.1"
   inkscape:version="0.48.3.1 r9886"
   sodipodi:docname="logo-square.svg">
  <defs
     id="defs4" />
  <sodipodi:namedview
     id="base"
     pagecolor="#ffffff"
     bordercolor="#666666"
     borderopacity="1.0"
     inkscape:pageopacity="0.0"
     inkscape:pageshadow="2"
     inkscape:zoom="1.979899"
     inkscape:cx="257.31723"
     inkscape:cy="901.83766"
     inkscape:document-units="px"
     inkscape:current-layer="layer1"
     showgrid="false"
     inkscape:window-width="1280"
     inkscape:window-height="744"
     inkscape:window-x="0"
     inkscape:window-y="27"
     inkscape:window-maximized="1" />
  <metadata
     id="metadata7">
    <rdf:RDF>
      <cc:Work
         rdf:about="">
        <dc:format>image/svg+xml</dc:format>
        <dc:type
           rdf:resource="http://purl.org/dc/dcmitype/StillImage" />
        <dc:title></dc:title>
      </cc:Work>
    </rdf:RDF>
  </metadata>
  <g
     inkscape:label="Layer 1"
     inkscape:groupmode="layer"
     id="layer1">
    <path
       style="fill:#000000"
       d="m 45.785718,149.50504 0,-5.5 5.5,0 5.5,0 0,5.5 0,5.5 -5.5,0 -5.5,0 0,-5.5 z m 20,0 0,-5.5 5.5,0 5.5,0 0,5.5 0,5.5 -5.5,0 -5.5,0 0,-5.5 z m 20,0 0,-5.5 5.5,0 5.499996,0 0,5.5 0,5.5 -5.499996,0 -5.5,0 0,-5.5 z m 19.999992,0 0,-5.5 5.5,0 5.5,0 0,5.5 0,5.5 -5.5,0 -5.5,0 0,-5.5 z m 49,0 0,-5.5 5.5,0 5.5,0 0,5.5 0,5.5 -5.5,0 -5.5,0 0,-5.5 z m 20,0 0,-5.5 5.5,0 5.5,0 0,5.5 0,5.5 -5.5,0 -5.5,0 0,-5.5 z m 20,0 0,-5.5 5.5,0 5.5,0 0,5.5 0,5.5 -5.5,0 -5.5,0 0,-5.5 z m 20,0 0,-5.5 5.5,0 5.5,0 0,5.5 0,5.5 -5.5,0 -5.5,0 0,-5.5 z m 50,0 0,-5.5 5.5,0 5.5,0 0,5.5 0,5.5 -5.5,0 -5.5,0 0,-5.5 z m 20,0 0,-5.5 5.5,0 5.5,0 0,5.5 0,5.5 -5.5,0 -5.5,0 0,-5.5 z m 20,0 0,-5.5 5.5,0 5.5,0 0,5.5 0,5.5 -5.5,0 -5.5,0 0,-5.5 z m 20,0 0,-5.5 5.5,0 5.5,0 0,5.5 0,5.5 -5.5,0 -5.5,0 0,-5.5 z m 50,0 0,-5.5 5.5,0 5.5,0 0,5.5 0,5.5 -5.5,0 -5.5,0 0,-5.5 z m 60,0 0,-5.5 5.5,0 5.5,0 0,5.5 0,5.5 -5.5,0 -5.5,0 0,-5.5 z m 50,0 0,-5.5 5.5,0 5.5,0 0,5.5 0,5.5 -5.5,0 -5.5,0 0,-5.5 z m 60,0 0,-5.5 5.5,0 5.5,0 0,5.5 0,5.5 -5.5,0 -5.5,0 0,-5.5 z m 47,0 0,-5.5 5.5,0 5.5,0 0,5.5 0,5.5 -5.5,0 -5.5,0 0,-5.5 z m 20,0 0,-5.5 5.5,0 5.5,0 0,5.5 0,5.5 -5.5,0 -5.5,0 0,-5.5 z m 20,0 0,-5.5 5.5,0 5.5,0 0,5.5 0,5.5 -5.5,0 -5.5,0 0,-5.5 z m 20,0 0,-5.5 5.5,0 5.5,0 0,5.5 0,5.5 -5.5,0 -5.5,0 0,-5.5 z m -546,-20 0,-5.5 5.5,0 5.5,0 0,5.5 0,5.5 -5.5,0 -5.5,0 0,-5.5 z m 49,0 0,-5.5 5.5,0 5.5,0 0,5.5 0,5.5 -5.5,0 -5.5,0 0,-5.5 z m 40,0 0,-5.5 5.5,0 5.5,0 0,5.5 0,5.5 -5.5,0 -5.5,0 0,-5.5 z m 20,0 0,-5.5 5.5,0 5.5,0 0,5.5 0,5.5 -5.5,0 -5.5,0 0,-5.5 z m 50,0 0,-5.5 5.5,0 5.5,0 0,5.5 0,5.5 -5.5,0 -5.5,0 0,-5.5 z m 60,0 0,-5.5 5.5,0 5.5,0 0,5.5 0,5.5 -5.5,0 -5.5,0 0,-5.5 z m 50,0 0,-5.5 5.5,0 5.5,0 0,5.5 0,5.5 -5.5,0 -5.5,0 0,-5.5 z m 20,0 0,-5.5 5.5,0 5.5,0 0,5.5 0,5.5 -5.5,0 -5.5,0 0,-5.5 z m 20,0 0,-5.5 5.5,0 5.5,0 0,5.5 0,5.5 -5.5,0 -5.5,0 0,-5.5 z m 20,0 0,-5.5 5.5,0 5.5,0 0,5.5 0,5.5 -5.5,0 -5.5,0 0,-5.5 z m 50,0 0,-5.5 5.5,0 5.5,0 0,5.5 0,5.5 -5.5,0 -5.5,0 0,-5.5 z m 60,0 0,-5.5 5.5,0 5.5,0 0,5.5 0,5.5 -5.5,0 -5.5,0 0,-5.5 z m 47,0 0,-5.5 5.5,0 5.5,0 0,5.5 0,5.5 -5.5,0 -5.5,0 0,-5.5 z m -545.999992,-20 0,-5.5 5.5,0 5.5,0 0,5.5 0,5.5 -5.5,0 -5.5,0 0,-5.5 z m 20,0 0,-5.5 5.5,0 5.5,0 0,5.5 0,5.5 -5.5,0 -5.5,0 0,-5.5 z m 20,0 0,-5.5 5.5,0 5.499996,0 0,5.5 0,5.5 -5.499996,0 -5.5,0 0,-5.5 z m 19.999992,0 0,-5.5 5.5,0 5.5,0 0,5.5 0,5.5 -5.5,0 -5.5,0 0,-5.5 z m 49,0 0,-5.5 5.5,0 5.5,0 0,5.5 0,5.5 -5.5,0 -5.5,0 0,-5.5 z m 60,0 0,-5.5 5.5,0 5.5,0 0,5.5 0,5.5 -5.5,0 -5.5,0 0,-5.5 z m 50,0 0,-5.5 5.5,0 5.5,0 0,5.5 0,5.5 -5.5,0 -5.5,0 0,-5.5 z m 60,0 0,-5.5 5.5,0 5.5,0 0,5.5 0,5.5 -5.5,0 -5.5,0 0,-5.5 z m 50,0 0,-5.5 5.5,0 5.5,0 0,5.5 0,5.5 -5.5,0 -5.5,0 0,-5.5 z m 60,0 0,-5.5 5.5,0 5.5,0 0,5.5 0,5.5 -5.5,0 -5.5,0 0,-5.5 z m 50,0 0,-5.5 5.5,0 5.5,0 0,5.5 0,5.5 -5.5,0 -5.5,0 0,-5.5 z m 20,0 0,-5.5 5.5,0 5.5,0 0,5.5 0,5.5 -5.5,0 -5.5,0 0,-5.5 z m 20,0 0,-5.5 5.5,0 5.5,0 0,5.5 0,5.5 -5.5,0 -5.5,0 0,-5.5 z m 67,0 0,-5.5 5.5,0 5.5,0 0,5.5 0,5.5 -5.5,0 -5.5,0 0,-5.5 z m 20,0 0,-5.5 5.5,0 5.5,0 0,5.5 0,5.5 -5.5,0 -5.5,0 0,-5.5 z m 20,0 0,-5.5 5.5,0 5.5,0 0,5.5 0,5.5 -5.5,0 -5.5,0 0,-5.5 z M 45.785718,89.505041 l 0,-5.5 5.5,0 5.5,0 0,5.5 0,5.5 -5.5,0 -5.5,0 0,-5.5 z m 108.999992,0 0,-5.5 5.5,0 5.5,0 0,5.5 0,5.5 -5.5,0 -5.5,0 0,-5.5 z m 60,0 0,-5.5 5.5,0 5.5,0 0,5.5 0,5.5 -5.5,0 -5.5,0 0,-5.5 z m 50,0 0,-5.5 5.5,0 5.5,0 0,5.5 0,5.5 -5.5,0 -5.5,0 0,-5.5 z m 60,0 0,-5.5 5.5,0 5.5,0 0,5.5 0,5.5 -5.5,0 -5.5,0 0,-5.5 z m 50,0 0,-5.5 5.5,0 5.5,0 0,5.5 0,5.5 -5.5,0 -5.5,0 0,-5.5 z m 60,0 0,-5.5 5.5,0 5.5,0 0,5.5 0,5.5 -5.5,0 -5.5,0 0,-5.5 z m 50,0 0,-5.5 5.5,0 5.5,0 0,5.5 0,5.5 -5.5,0 -5.5,0 0,-5.5 z m 60,0 0,-5.5 5.5,0 5.5,0 0,5.5 0,5.5 -5.5,0 -5.5,0 0,-5.5 z m 47,0 0,-5.5 5.5,0 5.5,0 0,5.5 0,5.5 -5.5,0 -5.5,0 0,-5.5 z m -545.999992,-20 0,-5.5 5.5,0 5.5,0 0,5.5 0,5.5 -5.5,0 -5.5,0 0,-5.5 z m 20,0 0,-5.5 5.5,0 5.5,0 0,5.5 0,5.5 -5.5,0 -5.5,0 0,-5.5 z m 20,0 0,-5.5 5.5,0 5.499996,0 0,5.5 0,5.5 -5.499996,0 -5.5,0 0,-5.5 z m 19.999992,0 0,-5.5 5.5,0 5.5,0 0,5.5 0,5.5 -5.5,0 -5.5,0 0,-5.5 z m 49,0 0,-5.5 5.5,0 5.5,0 0,5.5 0,5.5 -5.5,0 -5.5,0 0,-5.5 z m 20,0 0,-5.5 5.5,0 5.5,0 0,5.5 0,5.5 -5.5,0 -5.5,0 0,-5.5 z m 20,0 0,-5.5 5.5,0 5.5,0 0,5.5 0,5.5 -5.5,0 -5.5,0 0,-5.5 z m 20,0 0,-5.5 5.5,0 5.5,0 0,5.5 0,5.5 -5.5,0 -5.5,0 0,-5.5 z m 50,0 0,-5.5 5.5,0 5.5,0 0,5.5 0,5.5 -5.5,0 -5.5,0 0,-5.5 z m 60,0 0,-5.5 5.5,0 5.5,0 0,5.5 0,5.5 -5.5,0 -5.5,0 0,-5.5 z m 70,0 0,-5.5 5.5,0 5.5,0 0,5.5 0,5.5 -5.5,0 -5.5,0 0,-5.5 z m 20,0 0,-5.5 5.5,0 5.5,0 0,5.5 0,5.5 -5.5,0 -5.5,0 0,-5.5 z m 70,0 0,-5.5 5.5,0 5.5,0 0,5.5 0,5.5 -5.5,0 -5.5,0 0,-5.5 z m 20,0 0,-5.5 5.5,0 5.5,0 0,5.5 0,5.5 -5.5,0 -5.5,0 0,-5.5 z m 20,0 0,-5.5 5.5,0 5.5,0 0,5.5 0,5.5 -5.5,0 -5.5,0 0,-5.5 z m 20,0 0,-5.5 5.5,0 5.5,0 0,5.5 0,5.5 -5.5,0 -5.5,0 0,-5.5 z m 47,0 0,-5.5 5.5,0 5.5,0 0,5.5 0,5.5 -5.5,0 -5.5,0 0,-5.5 z m 20,0 0,-5.5 5.5,0 5.5,0 0,5.5 0,5.5 -5.5,0 -5.5,0 0,-5.5 z m 20,0 0,-5.5 5.5,0 5.5,0 0,5.5 0,5.5 -5.5,0 -5.5,0 0,-5.5 z m 20,0 0,-5.5 5.5,0 5.5,0 0,5.5 0,5.5 -5.5,0 -5.5,0 0,-5.5 z"
       id="path3101"
       inkscape:connector-curvature="0" />
  </g>
</svg>
